REM DIRINDEX 1\2,1\3,1\4,1\5,1\6
REM DIRNAME folder01,folder02,folder03,folder04,folder05,folder06
TITLE ""
FILE "Disc3Track55.mp3" MP3
  TRACK 01 AUDIO
    TITLE "3:cjc030_05750"
    INDEX 01 00:00:00
  TRACK 02 AUDIO
    TITLE "0:"
    INDEX 01 00:00:62
  TRACK 03 AUDIO
    TITLE "4:cjc030_05751"
    INDEX 01 00:00:72
  TRACK 04 AUDIO
    TITLE "0:"
    INDEX 01 00:02:14
  TRACK 05 AUDIO
    TITLE "5:cjc030_05752"
    INDEX 01 00:02:24
  TRACK 06 AUDIO
    TITLE "0:"
    INDEX 01 00:03:17
  TRACK 07 AUDIO
    TITLE "6:cjc030_05753"
    INDEX 01 00:03:29
  TRACK 08 AUDIO
    TITLE "0:"
    INDEX 01 00:06:51
  TRACK 09 AUDIO
    TITLE "3:cjc030_05754"
    INDEX 01 00:07:21
  TRACK 10 AUDIO
    TITLE "0:"
    INDEX 01 00:08:26
  TRACK 11 AUDIO
    TITLE "4:cjc030_05755"
    INDEX 01 00:08:38
  TRACK 12 AUDIO
    TITLE "0:"
    INDEX 01 00:09:22
  TRACK 13 AUDIO
    TITLE "5:cjc030_05756"
    INDEX 01 00:09:30
  TRACK 14 AUDIO
    TITLE "0:"
    INDEX 01 00:10:37
  TRACK 15 AUDIO
    TITLE "3:cjc030_05757"
    INDEX 01 00:11:15
  TRACK 16 AUDIO
    TITLE "0:"
    INDEX 01 00:12:22
  TRACK 17 AUDIO
    TITLE "4:cjc030_05758"
    INDEX 01 00:12:32
  TRACK 18 AUDIO
    TITLE "0:"
    INDEX 01 00:13:26
  TRACK 19 AUDIO
    TITLE "5:cjc030_05759"
    INDEX 01 00:13:35
  TRACK 20 AUDIO
    TITLE "0:"
    INDEX 01 00:14:41
  TRACK 21 AUDIO
    TITLE "3:cjc030_05760"
    INDEX 01 00:15:23
  TRACK 22 AUDIO
    TITLE "0:"
    INDEX 01 00:16:53
  TRACK 23 AUDIO
    TITLE "4:cjc030_05761"
    INDEX 01 00:16:63
  TRACK 24 AUDIO
    TITLE "0:"
    INDEX 01 00:18:72
  TRACK 25 AUDIO
    TITLE "5:cjc030_05762"
    INDEX 01 00:19:05
  TRACK 26 AUDIO
    TITLE "0:"
    INDEX 01 00:20:36
  TRACK 27 AUDIO
    TITLE "6:cjc030_05763"
    INDEX 01 00:20:47
  TRACK 28 AUDIO
    TITLE "0:"
    INDEX 01 00:25:52
  TRACK 29 AUDIO
    TITLE "3:cjc030_05764"
    INDEX 01 00:26:26
  TRACK 30 AUDIO
    TITLE "0:"
    INDEX 01 00:27:39
  TRACK 31 AUDIO
    TITLE "4:cjc030_05765"
    INDEX 01 00:27:49
  TRACK 32 AUDIO
    TITLE "0:"
    INDEX 01 00:29:33
  TRACK 33 AUDIO
    TITLE "5:cjc030_05766"
    INDEX 01 00:29:42
  TRACK 34 AUDIO
    TITLE "0:"
    INDEX 01 00:30:55
  TRACK 35 AUDIO
    TITLE "3:cjc030_05767"
    INDEX 01 00:31:37
  TRACK 36 AUDIO
    TITLE "0:"
    INDEX 01 00:32:62
  TRACK 37 AUDIO
    TITLE "4:cjc030_05768"
    INDEX 01 00:32:70
  TRACK 38 AUDIO
    TITLE "0:"
    INDEX 01 00:33:64
  TRACK 39 AUDIO
    TITLE "5:cjc030_05769"
    INDEX 01 00:33:73
  TRACK 40 AUDIO
    TITLE "0:"
    INDEX 01 00:35:23
  TRACK 41 AUDIO
    TITLE "3:cjc030_05770"
    INDEX 01 00:36:01
  TRACK 42 AUDIO
    TITLE "0:"
    INDEX 01 00:37:18
  TRACK 43 AUDIO
    TITLE "4:cjc030_05771"
    INDEX 01 00:37:28
  TRACK 44 AUDIO
    TITLE "0:"
    INDEX 01 00:39:11
  TRACK 45 AUDIO
    TITLE "5:cjc030_05772"
    INDEX 01 00:39:21
  TRACK 46 AUDIO
    TITLE "0:"
    INDEX 01 00:40:36
  TRACK 47 AUDIO
    TITLE "6:cjc030_05773"
    INDEX 01 00:40:50
  TRACK 48 AUDIO
    TITLE "0:"
    INDEX 01 00:43:48
  TRACK 49 AUDIO
    TITLE "3:cjc030_05774"
    INDEX 01 00:44:22
  TRACK 50 AUDIO
    TITLE "0:"
    INDEX 01 00:45:26
  TRACK 51 AUDIO
    TITLE "4:cjc030_05775"
    INDEX 01 00:45:35
  TRACK 52 AUDIO
    TITLE "0:"
    INDEX 01 00:46:37
  TRACK 53 AUDIO
    TITLE "5:cjc030_05776"
    INDEX 01 00:46:47
  TRACK 54 AUDIO
    TITLE "0:"
    INDEX 01 00:47:52
  TRACK 55 AUDIO
    TITLE "6:cjc030_05777"
    INDEX 01 00:47:64
  TRACK 56 AUDIO
    TITLE "0:"
    INDEX 01 00:51:07
  TRACK 57 AUDIO
    TITLE "3:cjc030_05778"
    INDEX 01 00:51:56
  TRACK 58 AUDIO
    TITLE "0:"
    INDEX 01 00:53:00
  TRACK 59 AUDIO
    TITLE "4:cjc030_05779"
    INDEX 01 00:53:09
  TRACK 60 AUDIO
    TITLE "0:"
    INDEX 01 00:53:70
  TRACK 61 AUDIO
    TITLE "5:cjc030_05780"
    INDEX 01 00:54:05
  TRACK 62 AUDIO
    TITLE "0:"
    INDEX 01 00:55:24
  TRACK 63 AUDIO
    TITLE "6:cjc030_05781"
    INDEX 01 00:55:36
  TRACK 64 AUDIO
    TITLE "0:"
    INDEX 01 00:57:31
  TRACK 65 AUDIO
    TITLE "3:cjc030_05782"
    INDEX 01 00:58:05
  TRACK 66 AUDIO
    TITLE "0:"
    INDEX 01 00:59:18
  TRACK 67 AUDIO
    TITLE "4:cjc030_05783"
    INDEX 01 00:59:26
  TRACK 68 AUDIO
    TITLE "0:"
    INDEX 01 01:00:53
  TRACK 69 AUDIO
    TITLE "5:cjc030_05784"
    INDEX 01 01:00:62
  TRACK 70 AUDIO
    TITLE "0:"
    INDEX 01 01:02:01
  TRACK 71 AUDIO
    TITLE "3:cjc030_05785"
    INDEX 01 01:02:55
  TRACK 72 AUDIO
    TITLE "0:"
    INDEX 01 01:04:01
  TRACK 73 AUDIO
    TITLE "4:cjc030_05786"
    INDEX 01 01:04:11
  TRACK 74 AUDIO
    TITLE "0:"
    INDEX 01 01:05:07
  TRACK 75 AUDIO
    TITLE "5:cjc030_05787"
    INDEX 01 01:05:17
  TRACK 76 AUDIO
    TITLE "0:"
    INDEX 01 01:06:38
  TRACK 77 AUDIO
    TITLE "3:cjc030_05788"
    INDEX 01 01:07:17
  TRACK 78 AUDIO
    TITLE "0:"
    INDEX 01 01:08:29
  TRACK 79 AUDIO
    TITLE "4:cjc030_05789"
    INDEX 01 01:08:38
  TRACK 80 AUDIO
    TITLE "0:"
    INDEX 01 01:11:25
  TRACK 81 AUDIO
    TITLE "5:cjc030_05790"
    INDEX 01 01:11:35
  TRACK 82 AUDIO
    TITLE "0:"
    INDEX 01 01:12:46
  TRACK 83 AUDIO
    TITLE "6:cjc030_05791"
    INDEX 01 01:12:58
  TRACK 84 AUDIO
    TITLE "0:"
    INDEX 01 01:16:52
  TRACK 85 AUDIO
    TITLE "3:cjc030_05792"
    INDEX 01 01:17:24
  TRACK 86 AUDIO
    TITLE "0:"
    INDEX 01 01:18:33
  TRACK 87 AUDIO
    TITLE "4:cjc030_05793"
    INDEX 01 01:18:45
  TRACK 88 AUDIO
    TITLE "0:"
    INDEX 01 01:21:14
  TRACK 89 AUDIO
    TITLE "5:cjc030_05794"
    INDEX 01 01:21:21
  TRACK 90 AUDIO
    TITLE "0:"
    INDEX 01 01:22:35
  TRACK 91 AUDIO
    TITLE "6:cjc030_05795"
    INDEX 01 01:22:46
  TRACK 92 AUDIO
    TITLE "0:"
    INDEX 01 01:26:17
  TRACK 93 AUDIO
    TITLE "3:cjc030_05796"
    INDEX 01 01:26:64
  TRACK 94 AUDIO
    TITLE "0:"
    INDEX 01 01:28:00
  TRACK 95 AUDIO
    TITLE "4:cjc030_05797"
    INDEX 01 01:28:10
  TRACK 96 AUDIO
    TITLE "0:"
    INDEX 01 01:31:10
  TRACK 97 AUDIO
    TITLE "5:cjc030_05798"
    INDEX 01 01:31:20
  TRACK 98 AUDIO
    TITLE "0:"
    INDEX 01 01:32:33
  TRACK 99 AUDIO
    TITLE "6:cjc030_05799"
    INDEX 01 01:32:43
  TRACK 100 AUDIO
    TITLE "0:"
    INDEX 01 01:35:08
  TRACK 101 AUDIO
    TITLE "3:cjc030_05800"
    INDEX 01 01:35:55
  TRACK 102 AUDIO
    TITLE "0:"
    INDEX 01 01:37:05
  TRACK 103 AUDIO
    TITLE "4:cjc030_05801"
    INDEX 01 01:37:13
  TRACK 104 AUDIO
    TITLE "0:"
    INDEX 01 01:38:06
  TRACK 105 AUDIO
    TITLE "5:cjc030_05802"
    INDEX 01 01:38:16
  TRACK 106 AUDIO
    TITLE "0:"
    INDEX 01 01:39:41
  TRACK 107 AUDIO
    TITLE "6:cjc030_05803"
    INDEX 01 01:39:53
  TRACK 108 AUDIO
    TITLE "0:"
    INDEX 01 01:43:27
